<?xml version="1.0" encoding="UTF-8" standalone="no"?>
<svg width="586px" height="81px" viewBox="0 0 586 81" version="1.1" xmlns="http://www.w3.org/2000/svg" xmlns:xlink="http://www.w3.org/1999/xlink" xmlns:sketch="http://www.bohemiancoding.com/sketch/ns">
    <!-- Generator: Sketch 3.1 (8751) - http://www.bohemiancoding.com/sketch -->
    <title>devices 2</title>
    <desc>Created with Sketch.</desc>
    <defs></defs>
    <g id="Page-1" stroke="none" stroke-width="1" fill="none" fill-rule="evenodd" sketch:type="MSPage">
        <g id="devices" sketch:type="MSLayerGroup" transform="translate(9.000000, 0.000000)">
            <g id="smartphone-4-icon" transform="translate(0.000000, 15.000000)" fill="#000000" sketch:type="MSShapeGroup">
                <path d="M25.5353571,0 L4.41964286,0 C1.97852679,0 0,1.97225728 0,4.40533981 L0,50.5946602 C0,53.0277427 1.97852679,55 4.41964286,55 L25.5353571,55 C27.9764732,55 29.955,53.0277427 29.955,50.5946602 L29.955,4.40533981 C29.955,1.97225728 27.9764732,0 25.5353571,0 L25.5353571,0 Z M12.63375,4.03449029 L17.5891071,4.03449029 C17.8849554,4.03449029 18.1248214,4.2735801 18.1248214,4.56847087 C18.1248214,4.86336165 17.8849554,5.10245146 17.5891071,5.10245146 L12.63375,5.10245146 C12.3379018,5.10245146 12.0980357,4.86336165 12.0980357,4.56847087 C12.0980357,4.2735801 12.3379018,4.03449029 12.63375,4.03449029 L12.63375,4.03449029 Z M15.1116964,52.471068 C13.9280357,52.471068 12.9688393,51.5148422 12.9688393,50.3351456 C12.9688393,49.155449 13.9280357,48.1992233 15.1116964,48.1992233 C16.2948214,48.1992233 17.2545536,49.155449 17.2545536,50.3351456 C17.2545536,51.5148422 16.2948214,52.471068 15.1116964,52.471068 L15.1116964,52.471068 Z M26.5958036,45.8889563 L3.35946429,45.8889563 L3.35946429,9.11104369 L26.5958036,9.11104369 L26.5958036,45.8889563 L26.5958036,45.8889563 Z"></path>
            </g>
            <g id="smart-watch" transform="translate(197.000000, 2.000000)" sketch:type="MSShapeGroup">
                <rect id="Rectangle-15" stroke="#000000" stroke-width="4" x="0" y="21.0843373" width="22.9090909" height="26.9879518" rx="8"></rect>
                <path d="M2.96969697,31.626506 L8.06060606,37.5301205" id="Line" stroke="#000000" stroke-linecap="square"></path>
                <path d="M12.3030303,32.4698795 L19.9393939,42.5903614" id="Line" stroke="#000000" stroke-linecap="square"></path>
                <path d="M8.06060606,37.5301205 L12.3030303,32.4698795" id="Line" stroke="#000000" stroke-linecap="square"></path>
                <rect id="crown" fill="#000000" x="24.6060606" y="32.0481928" width="3.39393939" height="5.06024096" rx="8"></rect>
                <rect id="band-2" fill="#000000" x="3.39393939" y="50.6024096" width="16.969697" height="19.3975904"></rect>
                <rect id="band" fill="#000000" x="3.39393939" y="0" width="16.969697" height="19.3975904"></rect>
            </g>
            <g id="tablet" transform="translate(86.000000, 0.000000)" fill="#000000" sketch:type="MSShapeGroup">
                <path d="M48.5833333,0 L4.41666667,0 C1.97549219,0 0,1.98689063 0,4.4375 L0,66.5625 C0,69.0153281 1.97549219,71 4.41666667,71 L48.5833333,71 C51.0246458,71 53,69.0151895 53,66.5625 L53,4.4375 C53,1.98689063 51.0246458,0 48.5833333,0 L48.5833333,0 Z M26.5,68.78125 C24.671224,68.78125 23.1875,67.2905273 23.1875,65.453125 C23.1875,63.6157227 24.671224,62.125 26.5,62.125 C28.328776,62.125 29.8125,63.6157227 29.8125,65.453125 C29.8125,67.2905273 28.328776,68.78125 26.5,68.78125 L26.5,68.78125 Z M46.375,59.90625 L6.625,59.90625 L6.625,6.65625 L46.375,6.65625 L46.375,59.90625 L46.375,59.90625 Z" id="Shape"></path>
            </g>
            <g id="laptop" transform="translate(271.000000, 31.000000)" sketch:type="MSShapeGroup">
                <rect id="leftbase" fill="#000000" x="0" y="35.4038462" width="33.423913" height="3.59615374" rx="4"></rect>
                <rect id="rightbase" fill="#000000" x="41.576087" y="35.4038462" width="33.423913" height="3.59615374" rx="4"></rect>
                <rect id="laptop-base" stroke="#000000" x="30.1630435" y="35.4038462" width="13.0434783" height="3.59615374" rx="8"></rect>
                <path d="M60.2057863,0 L14.6720963,0 C13.7098644,0 12.9297548,0.870359719 12.9297548,1.94391131 L12.9297548,35.7685926 C12.9297548,36.8421442 13.7098644,37.7126195 14.6720963,37.7126195 L60.2057863,37.7126195 C61.1680182,37.7126195 61.9482315,36.8422598 61.9482315,35.7685926 L61.9482315,1.94391131 C61.9481278,0.870475366 61.1680182,0 60.2057863,0 L60.2057863,0 Z M59.4798884,30.7144694 L15.3980979,30.7144694 L15.3980979,2.72175339 L59.4798884,2.72175339 L59.4798884,30.7144694 L59.4798884,30.7144694 Z" id="Shape-2" fill="#000000"></path>
                <path d="M2.5,36.5 L14.5,34.5" id="Line" stroke="#000000" stroke-width="2" stroke-linecap="square"></path>
                <path d="M60.5,36.5 L72.5,34.5" id="Line-2" stroke="#000000" stroke-width="2" stroke-linecap="square" transform="translate(66.500000, 35.500000) scale(-1, 1) translate(-66.500000, -35.500000) "></path>
            </g>
            <g id="all-in-one" transform="translate(395.000000, 7.000000)" fill="#000000" sketch:type="MSShapeGroup">
                <path d="M39.9858503,46.3435162 C39.9835612,46.3417694 39.9820351,46.3400226 39.9797459,46.3382758 C37.6542589,44.3589975 37.3530047,41.3210818 37.3305709,41.0472518 L37.3305709,41.0250427 L21.4257538,41.0250427 C21.4257538,41.0250427 21.2117932,44.264255 18.7747475,46.3382758 C17.8775472,46.3382758 17.150203,46.7347969 17.150203,47.2237315 C17.150203,47.7129156 17.8775472,48.1093535 18.7747475,48.1093535 L39.8100424,48.1093535 C40.7073953,48.1093535 41.4348921,47.7128324 41.4348921,47.2237315 C41.4350448,46.7671541 40.8003355,46.3912617 39.9858503,46.3435162 L39.9858503,46.3435162 Z" id="Shape"></path>
                <path d="M54.9079915,-0.0311707267 L1.97150106,-0.0311707267 C0.852830867,-0.0311707267 -0.0541078224,0.881634289 -0.0541078224,2.00754034 L-0.0541078224,37.4817679 C-0.0541078224,38.607674 0.852830867,39.5206003 1.97150106,39.5206003 L54.9079915,39.5206003 C56.0266617,39.5206003 56.9337209,38.6077953 56.9337209,37.4817679 L56.9337209,2.00754034 C56.9336004,0.881755576 56.0266617,-0.0311707267 54.9079915,-0.0311707267 L54.9079915,-0.0311707267 Z M54.0640782,32.1811676 L2.81553488,32.1811676 L2.81553488,2.82331586 L54.0640782,2.82331586 L54.0640782,32.1811676 L54.0640782,32.1811676 Z" id="Shape"></path>
                <rect id="Rectangle-25" x="7.65671642" y="49.5942029" width="43.3880597" height="12.826087" rx="3"></rect>
            </g>
            <g id="monitor" transform="translate(514.000000, 12.000000)" fill="#000000" sketch:type="MSShapeGroup">
                <g>
                    <path d="M55.8712896,-0.0316301331 L2.00608879,-0.0316301331 C0.867792812,-0.0316301331 -0.0550570825,0.894628162 -0.0550570825,2.03712826 L-0.0550570825,38.034189 C-0.0550570825,39.1766891 0.867792812,40.1030704 2.00608879,40.1030704 L55.8712896,40.1030704 C57.0095856,40.1030704 57.9325581,39.1768121 57.9325581,38.034189 L57.9325581,2.03712826 C57.9324355,0.894751237 57.0095856,-0.0316301331 55.8712896,-0.0316301331 L55.8712896,-0.0316301331 Z M55.0125708,32.6554664 L2.86493023,32.6554664 L2.86493023,2.864927 L55.0125708,2.864927 L55.0125708,32.6554664 L55.0125708,32.6554664 Z M26.68,42.2608643 L26.68,60.8260803 L32.48,60.8260803 L32.48,42.2608643 L26.68,42.2608643 Z" id="Shape-2"></path>
                    <rect id="Rectangle-24" x="22.04" y="62.826087" width="16.24" height="2.173913" rx="4"></rect>
                </g>
            </g>
        </g>
    </g>
</svg>